<svg width="41" height="18" viewBox="0 0 41 18" fill="none" xmlns="http://www.w3.org/2000/svg">
<path d="M35.0514 17.4441H6.40158C3.25613 17.4441 0.700012 14.888 0.700012 11.7425V2.80322C0.700012 1.67427 1.61595 0.751221 2.75201 0.751221C3.88806 0.751221 4.804 1.66717 4.804 2.80322V11.7425C4.804 12.623 5.52113 13.3472 6.40868 13.3472H35.0585C35.9389 13.3472 36.6632 12.6301 36.6632 11.7425V2.80322C36.6632 1.67427 37.5791 0.751221 38.7152 0.751221C39.8512 0.751221 40.7672 1.66717 40.7672 2.80322V11.7425C40.7672 14.888 38.211 17.4441 35.0656 17.4441H35.0514Z" fill="white"/>
<path d="M22.0184 11.2901C21.1805 10.5303 19.8812 10.5942 19.1214 11.4392L14.7263 16.31V3.06787C14.7263 1.41349 13.3844 0.0715332 11.73 0.0715332C10.0756 0.0715332 8.73366 1.41349 8.73366 3.06787V16.31L4.33855 11.4392C3.57882 10.6013 2.27946 10.5303 1.44162 11.2901C0.603783 12.0498 0.532778 13.342 1.29251 14.187L10.2105 24.0635C10.601 24.4967 11.1549 24.7381 11.73 24.7381C12.3051 24.7381 12.866 24.4896 13.2495 24.0635L22.1675 14.187C22.9272 13.3491 22.8633 12.0498 22.0184 11.2901Z" fill="white"/>
</svg>
