<svg width="2416" height="214" viewBox="0 0 2416 214" fill="none" xmlns="http://www.w3.org/2000/svg">
<mask id="mask0_72_1626" style="mask-type:alpha" maskUnits="userSpaceOnUse" x="0" y="0" width="2416" height="214">
<rect width="2416" height="214" fill="#D9D9D9"/>
</mask>
<g mask="url(#mask0_72_1626)">
<path d="M2436.43 148.879C2436.43 149.247 2435.22 155.074 2435.21 156.098C2435.19 155.772 2436.31 149.832 2434.21 151.404C2431.43 150.377 2294.12 159.851 2291.48 161.992C2283.83 162.802 2276.16 166.418 2268.56 161.922C2255.82 165.625 2240.3 159.833 2228.36 161.041C2222.52 161.865 2215.59 159.649 2209.18 159.54C2203.67 160.736 2200.8 156.696 2194.67 161.782C2190.33 164.796 2185.9 162.185 2181.58 161.664C2172.33 160.453 2163.05 163.187 2153.81 161.586C2145.93 164.318 2137.91 163.398 2129.97 161.372C2122 165.418 2114.17 160.974 2106.65 162.759C2097.87 159.46 2089.32 168.733 2080.81 164.447C2072.28 164.097 2063.7 165.628 2054.73 162.615C2048.76 159.904 2042.42 160.405 2036.41 160.152C2033.09 157.472 2030.29 162.115 2027.1 160.972C2021.46 159.008 2016.62 160.601 2011.77 162.714C2005.85 165.027 1999.75 162.093 1993.73 168.418C1989.44 166.19 1984 173.312 1978.56 172.521C1974.56 167.473 1970.47 171.201 1966.35 173.058C1959.88 171.56 1953.68 176.708 1947.09 175.492C1941.59 172.352 1935.93 169.983 1930.31 175.625C1920.44 179.213 1908.84 173.399 1900.45 177.025C1895.26 178.073 1889.93 182.373 1883.65 181.68C1880.02 185.945 1876 184.179 1872.35 181.747C1864.47 181.124 1856.36 179.6 1848.24 181.453C1840.15 180.298 1832.08 179.787 1824.27 182.097C1815.79 183.424 1806.61 185.297 1797.54 183.865C1788.44 185.152 1779.48 181.496 1771.35 181.977C1762.53 175.783 1754.6 183.699 1744.88 180.326C1735.12 176.915 1725.31 184.604 1715.56 180.241C1703.05 178.186 1690.28 179.19 1677.76 180.193C1672.89 182.535 1671.24 179.753 1667.1 178.088C1663.09 181.178 1660.84 176.227 1656.43 176.827C1647.52 180.13 1639.9 169.616 1632.16 173.299C1624.38 180.617 1616.72 167.417 1607.66 170.444C1596.44 169.044 1585.26 167.691 1574.05 172.712C1562.86 173.659 1551.63 176.573 1540.39 172.828C1529.77 172.038 1518.2 169.069 1508.01 169.14C1497.8 164.304 1486.29 170.32 1475.24 168.006C1457.12 167.899 1439 170.533 1420.91 167.909C1402.8 166.987 1384.71 164.876 1366.58 167.697C1358.79 165.751 1350.5 164.708 1343.79 169.813C1334.93 173.356 1325.09 171.975 1314.47 173.854C1305.23 170.206 1295.88 171.997 1286.61 173.742C1276.09 166.964 1268.01 174.157 1259.43 178.119C1254.56 182.077 1251.22 172.139 1245.11 181.028C1240.12 182.361 1235.07 181.224 1230.1 180.927C1216.85 182.546 1203.61 179.679 1190.36 180.814C1179.11 177.812 1170.38 177.884 1159.34 183.435C1148.59 187.126 1137.35 184.138 1127.05 186.945C1122.2 185.652 1117.81 189.153 1112.61 189.032C1102.13 180.026 1095.67 190.31 1085.8 194.251C1075.01 198.445 1069.13 190.011 1058.89 193.203C1053.3 196.776 1046.78 193.515 1041.1 192.977C1035.57 188.581 1028.5 190.939 1023.02 193.102C1016.71 193.49 1007.63 200.389 1002.55 198.363C996.363 201.988 994.891 199.8 986.764 201.241C981.938 197.778 978.068 204.028 973.393 200.141C965.521 196.849 956.5 194.597 948.316 196.843C933.972 203.531 918.225 193.505 903.757 196.759C903.775 193.139 869.06 195.144 869.055 196.658C855.868 199.551 842.688 198.656 829.53 196.543C818.224 190.63 810.344 192.611 799.332 194.325C791.104 194.837 783.037 193.807 775.297 191.193C770.129 192.905 765.346 186.321 760.02 187.296C750.281 181.766 738.774 192.218 729.374 189.353C718.83 191.403 708.294 192.689 697.757 188.86C687.218 185.659 676.614 184.452 665.927 186.595C657.379 185.423 652.643 186.799 644.708 188.957C634.914 190.897 624.946 187.294 614.9 192.12C605.925 190.282 599.518 185.939 590.143 193.731C585.72 186.958 582.894 195.35 579.348 195.003C573.349 195.731 569.988 197.378 562.144 200.032C553.596 200.504 545.222 197.588 536.824 198.769C528.458 195.435 520.084 196.169 511.565 196.665C497.152 191.323 482.918 190.709 468.3 197.598C461.365 195.743 454.423 193.339 447.439 197.527C439.856 190.269 431.039 192.378 424.648 200.314C421.912 202.608 418.049 205.843 415.662 202.825C413.537 201.611 412.123 206.157 409.364 205.334C401.293 205.458 388.065 207.987 379.077 206.689C376.871 203.169 372.84 208.97 370.874 205.615C368.884 199.59 367.792 203.728 365.938 203.733C363.813 201.3 361.499 202.557 359.314 202.429C356.936 197.421 355.339 207.519 352.539 200.424C349.657 203.187 345.901 199.574 342.938 200.384C335.154 197.342 327.349 198.894 319.538 200.324C312.565 197.132 308.712 202.026 302.622 198.79C298.605 193.539 293.483 198.003 289.057 197.592C278.217 200.701 266.827 189.466 256.036 195.838C252.287 189.478 245.803 192.005 242.269 193.303C239.119 196.562 238.971 191.41 237.232 190.232C234.763 187.08 230.889 185.813 227.126 184.255C221.316 181.554 206.297 185.492 199.43 183.179C192.69 183.325 185.962 181.813 179.206 183.128C177.129 185.87 173.791 184.033 171.953 183.044C170.831 184.649 171.166 185.959 170.34 182.068C164.142 179.698 159.884 177.594 153.01 179.414C147.362 175.509 134.994 181.571 130.78 176.244C126.812 173.637 128.671 177.939 121.827 172.496C117.249 171.218 112.285 169.205 107.633 172.425C-3.46085 187.388 -7.39928 189.406 -11.308 185.893C-11.2868 182.511 -11.2925 183.687 -11.24 174.759C-11.2197 171.21 -11.1308 158.951 -11.046 144.903C-10.966 132.542 -10.8664 117.333 -10.766 101.684C-10.6587 85.1119 -10.5498 68.2657 -10.4278 50.4463C-10.3165 32.6263 -10.1926 14.3597 -10.0696 -3.46686C-9.95833 -21.2868 -9.83729 -38.6662 -9.73165 -54.7046C-9.63219 -70.4331 -9.52023 -86.4351 -9.45158 -97.9235C-9.37833 -109.101 -9.29652 -121.649 -9.25829 -127.772C-9.24476 -130.138 -9.17623 -139.887 -9.18935 -138.914C-5.72731 -140.158 -1.94289 -135.649 107.236 -152.81C112.017 -153.419 116.802 -154.056 121.57 -152.739C123.424 -152.131 129.01 -154.845 130.947 -152.559C133.441 -151 132.676 -147.739 135.209 -149.705C137.273 -149.735 142.301 -146.939 144.72 -149.295C154.541 -147.806 164.553 -145.586 174.863 -148.364C182.764 -147.126 189.274 -157.068 196.853 -150.473C205.171 -151.189 213.714 -149.974 222.055 -150.35C228.324 -152.456 234.569 -150.458 240.826 -150.3C250.787 -149.15 254.862 -148.096 263.12 -152.847C269.083 -154.581 275.951 -153.675 282.456 -158.358C292.107 -161.33 303.693 -160.516 313.956 -159.53C329.297 -159.706 342.422 -152.986 358.159 -155.203C365.785 -157.761 368.814 -150.762 374.448 -151.77C379.477 -147.423 384.293 -151.781 391.211 -146.666C396.637 -151.914 411.566 -150.966 425.28 -147.055C439.009 -146.649 451.56 -146.273 452.159 -144.645C462.331 -140.671 472.956 -140.502 483.241 -141.08C493.493 -137.223 503.431 -139.891 512.185 -135.064C519.312 -125.378 525.319 -131.2 533.818 -132.671C542.147 -131.561 550.879 -135.854 559.426 -132.842C567.991 -131.979 576.403 -130.496 584.189 -131.032C593.133 -130.502 600.315 -131.324 609.106 -132.353C617.002 -140.111 626.041 -135.831 634.332 -133.468C639.239 -132.043 645.285 -128.628 649.633 -131.67C653.273 -130.783 654.761 -127.419 659.102 -130.144C666.959 -130.294 675.272 -128.016 683.118 -130.071C690.686 -136.585 697.362 -131.274 704.689 -132.391C712.169 -130.643 719.197 -127.456 726.679 -135.107C739.507 -135.04 752.896 -136.428 765.575 -136.383C777.738 -135.934 789.727 -143.734 801.928 -139.776C810.326 -140.178 818.297 -140.632 826.726 -140.151C836.626 -141.732 846.275 -140.08 856.165 -143.22C864.171 -148.822 871.5 -142.48 879.477 -146.367C889.099 -152.321 899.41 -144.075 908.588 -144.123C916.049 -141.106 921.773 -141.973 929.799 -143.037C940.634 -135.259 952.479 -140.693 963.218 -142.732C968.817 -145.027 973.952 -141.006 979.547 -140.747C983.685 -141.153 988.212 -139.035 992.406 -140.758C1001.91 -142.836 1011.4 -134.181 1020.96 -140.665C1030.49 -143.644 1039.96 -140.156 1049.33 -139.385C1050.7 -140.434 1048.3 -139.334 1049.55 -134.431C1056.42 -133.669 1069.01 -132.208 1076.38 -134.217C1086.02 -139.925 1092.11 -133.066 1100.14 -131.028C1111.96 -132.12 1127.35 -125.245 1140.98 -124.535C1149.1 -121.676 1159.7 -126.479 1168.05 -124.51C1178.35 -128.492 1188.47 -126.05 1198.28 -123.538C1202.33 -121.453 1205.82 -125.264 1209.82 -121.464C1217.19 -126.46 1224.41 -118.161 1231.81 -119.072C1240.41 -113.72 1248.84 -120.807 1257.57 -116.825C1265 -119.185 1266.79 -110.299 1270.96 -111.165C1273.68 -107.588 1275.68 -110.536 1280.32 -107.286C1284.2 -113.102 1289.79 -102.145 1293.83 -107.346C1305.81 -109.072 1317.32 -110.253 1329.16 -108.293C1339.26 -112.063 1348.17 -106.42 1357.97 -105.293C1362.06 -111.048 1365.23 -108.347 1369.05 -103.973C1375.68 -103.232 1383.58 -103.343 1389.77 -102.236C1394.83 -98.1472 1398 -102.12 1403.79 -100.567C1413.82 -96.5638 1421.77 -105.452 1431.3 -96.0513C1442.11 -90.3679 1456.07 -91.6949 1467.38 -95.384C1479.14 -94.8778 1490.53 -93.8007 1501.9 -96.1082C1513.23 -94.8902 1524.46 -87.2212 1536.01 -93.7606C1544.63 -98.7305 1554.28 -92.3532 1563.22 -92.9701C1576.35 -92.4677 1588.12 -101.303 1601.33 -95.9488C1611.35 -97.6817 1621.35 -97.0707 1631.36 -95.8394C1641.35 -94.3704 1651.37 -94.8914 1661.38 -95.7736C1670.46 -97.3852 1679.51 -95.168 1688.58 -95.6763C1697.66 -97.7495 1706.72 -95.4236 1715.78 -95.6441C1720.82 -96.433 1723.68 -95.8854 1728.03 -94.6275C1734.03 -92.0522 1741.84 -96.9014 1747.94 -94.4789C1760 -93.8408 1776.42 -97.9325 1787.29 -93.0748C1792.48 -90.7466 1795.2 -90.3941 1801.08 -89.3401C1808.14 -87.3918 1815.76 -85.412 1822.73 -86.895C1833.85 -85.2632 1842.12 -88.427 1852.59 -88.9809C1860.87 -88.6675 1869.72 -91.0278 1878.47 -89.2237C1887.23 -90.4054 1895.93 -91.3746 1903.9 -87.4712C1914.23 -87.145 1924.99 -87.9282 1935.52 -83.652C1938.72 -83.4824 1942.34 -86.6514 1945.32 -83.3699C1946.87 -83.1403 1947.31 -82.7332 1948.68 -82.3621C1952.25 -83.405 1954.3 -77.8523 1958.57 -81.2304C1967.73 -80.3995 1977.7 -82.5033 1986.83 -81.147C1991.16 -81.0372 1995.11 -80.3214 1999.41 -82.2547C2004.6 -78.8947 2010.18 -79.6682 2015.4 -82.1784C2021.67 -77.8209 2027.61 -78.2786 2033.91 -81.2057C2040.86 -74.4512 2047 -78.4183 2053.78 -79.1257C2063.22 -80.775 2073.21 -80.807 2082.54 -81.7339C2094.75 -80.2008 2107.61 -83.1038 2120 -82.9379C2132.96 -80.2085 2146.49 -79.9151 2159.32 -83.036C2173.96 -84.1673 2186.47 -82.682 2201.55 -84.8564C2209.24 -89.8202 2215.61 -87.2748 2223.13 -82.5378C2228.63 -81.7578 2234.45 -85.3385 2239.97 -82.5661C2252.81 -80.6295 2266.33 -85.8265 2278.56 -81.4276C2290.62 -78.3589 2425.05 -89.1527 2437.84 -89.3403C2437.91 -92.8134 2437.92 -86.1832 2438 -89.3386C2438.04 -95.8505 2437.97 -85.6321 2437.91 -76.1415C2437.88 -71.1944 2437.77 -54.5721 2437.68 -42.1106C2437.59 -26.5624 2437.49 -12.2405 2437.38 4.42539C2437.27 21.0913 2437.16 38.4569 2437.06 55.1299C2436.94 71.5791 2436.83 88.5047 2436.75 101.666C2436.67 115.195 2436.57 129.524 2436.52 135.697C2436.46 145.49 2436.46 145.057 2436.44 148.894" fill="white"/>
<path d="M2448.03 133.914C2442.74 134.523 2304.12 134.382 2298.61 133.948C2286.61 136.963 2272.73 134.825 2260.17 136.987C2250.49 136.517 2244.12 142.333 2236.17 142.132C2228.74 142.038 2225.85 138.913 2216.34 146.063C2204.56 145.737 2190.41 146.259 2178.85 146.111C2172.85 148.449 2169.24 149.591 2162.92 148.066C2152.55 145.039 2142.47 149.95 2132.31 146.9C2123.3 144.215 2116.25 145.925 2106.62 143.596C2095.83 147.494 2083.98 142.727 2073.34 143.761C2064.35 142.564 2055.23 144.405 2046.08 144.577C2036.89 149.011 2027.77 141.047 2018.59 144.42C2004.74 145.862 1986.5 142.141 1974.21 146.338C1970.46 146.08 1967.4 147.571 1963.12 149.527C1959.99 149.195 1957.36 152.989 1954.27 150.754C1951.13 152.629 1947.34 157.03 1944.41 152.799C1941.37 148.959 1938.66 152.928 1935.69 155.563C1929.9 155.503 1919.95 159.937 1913.92 155.607C1907.51 152.692 1899.74 151.325 1893.58 156.856C1885.35 162.807 1877.56 160.494 1869.56 162.692C1862.33 162.739 1854.31 166.639 1846.21 164.012C1838.1 162.842 1829.87 162.178 1822.14 164.55C1808.74 166.37 1795.02 164.969 1780.67 166.866C1775.23 164.625 1770.47 162.926 1764.97 165.695C1761.31 167.289 1757.57 166.844 1753.92 165.69C1746.26 169.169 1738.66 163.8 1731.02 165.621C1723.89 162.385 1714.73 168.126 1707.93 165.398C1702.76 166.151 1703.92 158.583 1700.68 162.595C1698.47 159.63 1695.45 161.245 1692.77 161.436C1685.97 155.527 1678.9 164.031 1673.1 159.187C1666.25 162.682 1661.27 157.948 1653.68 156.778C1645.78 150.96 1639.88 153.663 1631.65 153.721C1620.73 153.492 1609.61 156.318 1598.69 153.702C1598.7 152.656 1572.25 147.926 1572.21 153.623C1566.51 155.068 1558.86 156.296 1553.45 153.357C1546.15 153.855 1540.51 154.135 1532.87 148.417C1527.13 148.497 1521.83 148.528 1516.13 146.33C1508.16 149.165 1498.13 143.603 1490.06 146.043C1476.37 148.85 1459.71 144.588 1447.3 147.473C1440.74 146.815 1434.85 148.372 1427.04 151.172C1422.24 156.122 1420.72 155.483 1416.21 149.441C1409.91 151.552 1402.47 142.628 1395.91 148.924C1382.78 148.818 1369.64 147.197 1356.5 148.729C1348.3 146.104 1344.06 147.225 1337.2 151.131C1332.04 155.643 1330.88 158.184 1325.46 152.906C1314.37 151.831 1304.88 156.768 1293.91 154.913C1284.34 162.211 1274.79 161.618 1265.31 154.832C1251.81 155.889 1240.81 146.083 1228.52 156.701C1219.72 156.25 1215.1 160.201 1207.31 164.935C1194.98 171.164 1177.53 169.074 1162.83 167.049C1157.03 165.473 1149.26 169.408 1144.35 169.432C1140.6 174.766 1141.87 171.517 1136.6 171.284C1132.1 166.555 1127.75 173.442 1123.33 172.353C1119.55 173.378 1116.14 178.189 1112.24 174.438C1106.21 176.377 1099.75 175.414 1094.25 173.487C1090.67 175.951 1088.42 171.599 1085.16 172.162C1084.94 170.202 1084.06 172.584 1082.55 171.08C1082.58 168.102 1080.14 169.835 1080.13 170.845C1069.89 171.786 1051.37 165.755 1040.82 170.965C1033.8 178.073 1025.41 175.048 1019.08 174.279C1012.6 179.764 1011.49 172.763 1007.36 180.939C1001.95 180.265 996.128 182.771 988.717 183.421C982.272 182.856 972.422 178.04 965.066 182.251C959.247 183.444 955.046 186.617 948.868 183.303C939.435 180.963 929.932 182.314 920.473 183.219C911.153 185.366 904.207 175.351 894.695 181.029C888.446 179.327 884.131 178.288 878.802 179.977C872.387 182.212 866.65 172.848 859.714 177.774C855.541 174.557 854.097 177.096 850.46 177.306C848.821 180.188 846.706 177.069 844.063 175.574C842.862 180.327 841.713 175.726 840.551 175.654C825.122 175.407 809.429 170.326 794.875 171.058C787.781 159.195 779.584 170.746 771.356 168.135C763.132 165.754 754.756 167.195 747.095 166.988C737.772 163.774 728.371 171.334 719.058 166.909C713.488 170.973 706.08 169.95 700.656 166.938C697.034 172.942 696.299 170.051 693.056 164.945C690.222 160.9 683.692 164.571 680.536 163.885C676.662 170.69 673.324 165.902 669.974 163.214C668.846 169.551 667.229 166.438 665.091 160.643C663.459 159.037 661.82 158.362 660.166 160.147C653.996 159.632 648.832 157.233 642.586 158.28C632.948 157.155 623.562 156.261 614.046 159.45C607.11 160.387 599.541 161.354 593.143 162.32C588.218 161.651 583.761 164.521 578.406 165.56C571.936 162.85 565.56 166.068 558.942 167.759C554.282 162.617 549.41 172.289 544.852 169.115C540.483 172.148 536.848 167.749 532.243 171.455C524.23 175.29 515.768 172.557 507.248 171.761C498.707 174.001 490.182 169.951 482.048 171.623C468.032 176.381 455.015 173.576 442.455 179.605C438.28 187.865 434.17 181.095 429.988 182.638C427.749 185.198 425.676 187.392 423.789 184.792C420.65 181.451 416.277 185.906 413.086 184.892C405.333 184.904 397.343 185.256 389.625 184.98C381.473 189.32 379.517 186.146 373.249 187.978C367.696 189.214 365.126 189.822 358.877 191.071C354.895 187.713 352.484 190.436 348.83 190.177C345.764 194.588 342.743 183.102 339.778 189.741C339.893 188.384 336.441 191.108 333.808 187.102C330.283 188.682 330.808 190.811 329.709 182.684C317.767 176.996 304.379 180.021 292.009 181.415C286.114 181.825 282.677 177.66 279.118 177.16C275.579 168.43 270.954 172.734 266.813 171.083C263.181 174.995 260.665 164.929 255.931 165.244C247.644 161.28 236.712 162.01 227.344 163.404C222.272 163.477 216.996 162.493 212.21 162.185C207.8 162.164 203.188 156.21 198.585 160.594C191.853 162.935 187.998 158.126 182.356 157.028C175.981 156.25 168.388 146.993 160.862 151.525C155.421 151.686 154.193 148.148 149.513 153.502C142.399 154.905 132.665 155.413 125.254 153.64C116.366 156.228 5.60034 164.334 -3.27881 166.938C-4.30758 165.452 -5.01167 166.229 -5.86836 166.751C-5.86175 165.136 -5.81815 158.71 -5.77134 151.477C-5.74849 147.561 -5.59003 124.239 -5.51533 112.095C-5.41195 97.2898 -5.2868 77.5374 -5.16526 58.2463C-4.96523 27.3881 -4.74624 -5.53237 -4.56149 -33.9242C-4.46867 -48.1237 -4.39128 -60.3763 -4.31202 -72.2968C-4.25264 -82.0615 -4.20274 -88.4505 -4.14002 -98.9363C-4.08269 -106.861 -4.0787 -107.936 -4.07546 -108.917C-2.17799 -109.526 -0.538639 -107.113 0.499711 -109.003C10.2973 -112.537 118.15 -126.402 126.02 -125.959C130.367 -123.872 134.756 -127.936 139.804 -128.768C147.48 -128.856 154.611 -132.913 162.245 -129.454C172.353 -128.794 182.735 -133.45 191.833 -134.159C200.36 -142.012 208.581 -138.564 218.303 -139.844C229.061 -140.31 239.566 -140.472 250.004 -139.592C260.428 -137.551 270.77 -132.853 281.315 -137.774C294.782 -136.395 307.591 -138.954 321.623 -136.375C328.526 -138.258 336.151 -136.206 342.931 -136.235C352.604 -137.035 361.849 -130.933 371.534 -132.266C378.418 -130.962 384.137 -129.268 391.145 -130.951C400.173 -129.802 412.336 -123.366 417.338 -126.263C420.138 -124.896 418.676 -121.262 423.948 -117.378C425.734 -118.404 428.878 -116.579 430.849 -117.169C437.021 -118.495 443.158 -115.984 449.327 -117.114C456.379 -117.417 466.305 -118.239 472.553 -116.443C478.811 -114.727 482.424 -112.752 489.458 -110.913C497.542 -112.796 508.051 -107.699 516.623 -109.584C520.1 -109.038 522.084 -109.297 524.914 -110.165C526.899 -104.615 528.151 -113.86 530.643 -111.68C535.373 -111.534 541.222 -115.222 546.148 -112.561C559.191 -113.781 571.856 -109.892 584.133 -112.791C596.401 -114.753 608.194 -111.951 619.495 -118.151C624.653 -120.997 629.354 -121.48 635.693 -122.933C643.363 -125.748 654.586 -126.635 662.429 -122.847C667.673 -122.211 672.352 -127.73 677.713 -121.699C684.444 -123.419 690.702 -121.622 697.26 -120.308C708.475 -115.662 720.086 -122.429 731.618 -119.447C734.813 -114.213 739.051 -113.942 742.196 -119.598C746.713 -122.428 747.483 -119.998 752.754 -121.495C760.761 -118.585 769.978 -129.193 777.432 -124.034C786.023 -121.986 794.594 -121.772 803.338 -126.244C812.057 -127.306 820.967 -132.419 830.148 -126.5C830.144 -126.292 855.304 -126.617 880.445 -126.352C905.635 -131.423 930.783 -131.303 930.743 -126.204C938.919 -124.31 951.601 -127.158 959.303 -126.147C964.55 -127.538 965.017 -120.161 969.958 -121.706C973.421 -125.735 980.8 -119.014 984.612 -121.848C989.919 -120.415 994.682 -122.265 999.73 -121.192C1003.95 -125.994 1007.22 -118.297 1011.66 -119.421C1019.11 -114.458 1024.47 -116.903 1031.49 -115.909C1039.94 -120.029 1050.52 -120.656 1059.36 -115.377C1068.94 -114.66 1077.79 -114.632 1086.26 -111.906C1094.85 -103.286 1103.73 -108.141 1112.78 -108.896C1121.81 -107.971 1131.03 -104.618 1140.49 -108.806C1149.2 -111.095 1157.71 -110.538 1166.12 -108.738C1174.55 -109.231 1182.92 -110.572 1191.27 -107.218C1202.65 -108.219 1214.09 -108.199 1225.18 -104.932C1232.75 -106.352 1240.99 -104.526 1248.14 -102.183C1257.1 -103.599 1264.76 -98.8974 1273.43 -100.821C1283.4 -96.4023 1294.11 -97.6715 1304.52 -97.0528C1315.84 -102.393 1325.41 -89.91 1337.22 -94.6022C1347.93 -82.4099 1367.92 -93.518 1374.91 -90.8228C1380.93 -80.3397 1387.82 -91.1478 1397.79 -85.4601C1407.43 -89.5227 1418.97 -87.0378 1427.96 -84.7657C1437.43 -81.9408 1444.12 -74.1259 1454.08 -79.3175C1460.96 -81.0005 1469.3 -84.1828 1475.82 -77.7047C1480.26 -79.7532 1483.46 -78.4074 1488.21 -75.5477C1497.48 -74.6166 1507.15 -74.8103 1516.91 -73.9103C1526.67 -74.9286 1536.52 -73.1867 1546.15 -74.0175C1548.59 -75.7511 1551.79 -74.5928 1554.11 -74.2265C1556.78 -75.9333 1557.49 -72.1279 1559.67 -75.9248C1563.95 -76.8927 1570.17 -78.1576 1574.77 -77.0448C1583.66 -78.8761 1593.15 -76.9808 1602.09 -77.0562C1610.07 -79.4934 1618.13 -78.0235 1626.06 -76.9358C1632.41 -76.3463 1636.39 -79.51 1642.53 -79.1199C1647.28 -82.1178 1650.41 -78.013 1655.2 -80.3094C1662.91 -78.8443 1671.42 -83.7407 1679.56 -83.1969C1687.06 -82.8763 1690.26 -81.5448 1696.89 -81.0628C1702.13 -79.0922 1706.79 -78.9788 1712.39 -79.9463C1717.63 -79.9955 1719.2 -78.7831 1723.72 -77.6387C1727.17 -78.487 1733.16 -80.3991 1736.87 -77.7124C1745.61 -78.6284 1754.34 -73.8749 1763.1 -77.6401C1772.72 -78.1759 1780.13 -80.2691 1789.57 -80.7787C1792.4 -82.729 1798.32 -81.8242 1801.02 -80.5715C1802.57 -81.1061 1804.7 -79.1487 1805.91 -78.5554C1810.01 -77.5059 1812.29 -74.6965 1817.17 -76.3815C1825.34 -76.8819 1834.59 -74.4659 1843.26 -75.5378C1852.45 -77.9584 1860.81 -74.1846 1870.23 -76.2757C1883.05 -72.3056 1893.82 -78.8742 1906.18 -74.2012C1913.89 -71.9426 1922.95 -73.8796 1930.3 -71.6771C1932.47 -71.7951 1933.72 -73.7679 1936.09 -69.9716C1939.17 -69.3034 1943.02 -71.3346 1946.18 -69.7672C1956.27 -70.9695 1966.19 -67.5643 1976.13 -68.8614C1985.88 -66.6992 1995.34 -70.4107 2005.41 -69.5943C2014.96 -71.6706 2024.51 -71.8135 2034.04 -69.591C2043.57 -67.7005 2053.16 -72.2926 2062.66 -69.4731C2073.29 -68.243 2082.44 -64.9744 2092.77 -66.286C2100.94 -65.12 2109.19 -64.0215 2117.4 -63.9643C2127.83 -64.0226 2138.67 -64.4118 2149.14 -63.7316C2156.9 -63.18 2159.52 -61.8012 2165.66 -59.882C2171.43 -60.3564 2177.94 -58.1716 2184.71 -57.501C2192.9 -58.722 2200.08 -60.0928 2208.05 -58.5262C2217.59 -58.1145 2227.48 -56.1966 2236.97 -58.5002C2248.44 -60.9535 2258.49 -60.2965 2270.19 -60.4219C2277.6 -58.7424 2310.66 -61.1058 2309.93 -56.2762C2311.57 -54.5767 2447.34 -56.9169 2449.24 -54.6765C2449.23 -53.3785 2449.23 -53.4507 2449.18 -45.5107C2449.14 -40.4268 2449.08 -30.8281 2449.02 -21.5901C2448.96 -12.6117 2448.89 -0.352047 2448.81 11.7202C2448.7 29.8285 2448.57 49.4438 2448.44 67.5516C2448.32 85.768 2448.2 104.042 2448.13 114.332C2448.06 125.063 2448 134.287 2448 133.948" fill="#0C0B0B"/>
</g>
</svg>
