<svg width="35" height="34" viewBox="0 0 35 34" fill="none" xmlns="http://www.w3.org/2000/svg">
<path d="M0.838234 8.98554C1.13069 7.44424 1.40733 5.90294 2.24516 4.52763C4.15796 1.40551 7.15362 0.204086 10.5998 0.125045C15.3027 0.00648361 20.0136 0.0143877 24.7244 0.125045C27.9177 0.204086 30.7632 1.25533 32.7076 4.02177C33.9564 5.80809 34.4228 7.84735 34.4544 9.95775C34.5255 14.4789 34.5571 19.0079 34.4544 23.5291C34.3674 27.1729 33.1028 30.2792 29.6961 32.1288C28.1232 32.9824 26.3922 33.3539 24.6296 33.3776C19.982 33.4329 15.3344 33.4804 10.6867 33.3776C7.20103 33.2986 4.17376 32.1209 2.23725 28.9671C1.39942 27.5997 1.12277 26.0505 0.830322 24.5092V8.99345L0.838234 8.98554ZM17.6977 3.3104C15.3897 3.3104 13.0817 3.26297 10.7737 3.3183C7.16943 3.40525 4.95628 5.08882 4.30023 8.19513C4.15796 8.85117 4.05521 9.53093 4.05521 10.2028C4.0315 14.5737 3.97618 18.9447 4.06312 23.3157C4.15007 27.6629 6.34739 29.9867 10.5445 30.1448C15.279 30.3187 20.0215 30.3029 24.7561 30.1448C28.2497 30.0263 30.3284 28.3506 30.9924 25.3312C31.1109 24.7937 31.2216 24.2405 31.2295 23.6872C31.2532 18.7076 31.5299 13.7201 31.0793 8.74842C30.8106 5.80019 28.8425 3.87949 25.9021 3.47638C23.1752 3.10489 20.4325 3.36573 17.6977 3.3104Z" fill="white"/>
<path d="M26.3765 16.8029C26.3607 21.4979 22.4639 25.3551 17.682 25.4105C12.8842 25.4658 8.9005 21.5058 8.91631 16.6922C8.93211 11.9577 12.9711 7.98982 17.6978 8.08467C22.5509 8.17952 26.3844 12.0367 26.3686 16.8029H26.3765ZM23.1437 16.7634C23.1437 13.7756 20.6855 11.3254 17.6662 11.3095C14.6626 11.2937 12.1649 13.7519 12.157 16.7318C12.157 19.7195 14.6152 22.1698 17.6345 22.1856C20.6381 22.2014 23.1358 19.7432 23.1437 16.7634Z" fill="white"/>
<path d="M26.6137 5.80024C27.7677 5.78443 28.7478 6.74083 28.7478 7.88692C28.7478 8.97769 27.7993 9.91828 26.6848 9.9499C25.5308 9.98151 24.527 9.04092 24.5112 7.90273C24.4875 6.75664 25.4359 5.81605 26.6216 5.80024H26.6137Z" fill="white"/>
</svg>
