<svg width="28" height="28" viewBox="0 0 28 28" fill="none" xmlns="http://www.w3.org/2000/svg">
<path d="M6.23856 3.23501C6.23856 4.88696 5.18732 6.23856 3.23501 6.23856C1.43287 6.23856 0.231445 4.88696 0.231445 3.38518C0.231445 1.73322 1.43287 0.231445 3.23501 0.231445C5.03714 0.231445 6.23856 1.58305 6.23856 3.23501Z" fill="white"/>
<path d="M6.23847 7.73242H0.239258V27.2318H6.23847V7.73242Z" fill="white"/>
<path d="M20.6319 8.03281C17.4781 8.03281 15.6839 9.83494 14.933 11.0364H14.7828L14.4825 8.48334H9.08398C9.08398 10.1353 9.23416 12.0797 9.23416 14.3324V27.2319H15.2334V16.585C15.2334 15.9843 15.2334 15.5338 15.3836 15.0833C15.8341 14.032 16.585 12.6804 18.2369 12.6804C20.3394 12.6804 21.2405 14.4826 21.2405 16.8775V27.224H27.2397V16.1266C27.2397 10.5779 24.3863 8.0249 20.6398 8.0249L20.6319 8.03281Z" fill="white"/>
</svg>
