<svg width="2289" height="676" viewBox="0 0 2289 676" fill="none" xmlns="http://www.w3.org/2000/svg">
<path d="M2258.68 476.045C2258.68 476.526 2257.47 484.146 2257.46 485.485C2257.44 485.058 2258.56 477.291 2256.47 479.347C2253.68 478.004 2238.81 475.75 2236.17 478.55C2228.52 479.61 2220.85 484.337 2213.25 478.458C2200.52 483.301 2185 475.727 2173.05 477.306C2167.21 478.384 2160.28 475.487 2153.88 475.345C2148.36 476.908 2145.49 471.626 2139.36 478.276C2135.03 482.217 2130.59 478.802 2126.27 478.121C2117.02 476.538 2107.75 480.112 2098.5 478.019C2090.63 481.591 2082.6 480.388 2074.67 477.739C2066.69 483.03 2058.87 477.219 2051.35 479.553C2042.57 475.239 2034.01 487.364 2025.51 481.759C2016.97 481.303 2008.39 483.305 1999.42 479.364C1993.45 475.82 1987.11 476.474 1981.1 476.144C1977.79 472.64 1974.98 478.71 1971.8 477.216C1966.16 474.648 1961.32 476.732 1956.47 479.494C1950.54 482.518 1944.45 478.681 1938.42 486.952C1934.13 484.039 1928.69 493.352 1923.25 492.317C1919.25 485.717 1915.16 490.591 1911.04 493.019C1904.57 491.061 1898.38 497.791 1891.78 496.202C1886.28 492.096 1880.62 488.999 1875.01 496.375C1865.14 501.067 1853.54 493.465 1845.15 498.206C1839.95 499.576 1834.63 505.199 1828.35 504.293C1824.71 509.869 1820.7 507.56 1817.04 504.381C1809.16 503.566 1801.05 501.574 1792.94 503.996C1784.84 502.487 1776.77 501.818 1768.96 504.838C1760.48 506.574 1751.3 509.023 1742.23 507.15C1733.14 508.832 1724.17 504.052 1716.05 504.682C1707.23 496.583 1699.3 506.933 1689.57 502.522C1679.82 498.063 1670 508.116 1660.26 502.412C1647.74 499.724 1634.97 501.037 1622.46 502.349C1617.58 505.41 1615.93 501.773 1611.79 499.597C1607.79 503.636 1605.53 497.163 1601.12 497.948C1592.22 502.266 1584.6 488.518 1576.85 493.335C1569.08 502.903 1561.41 485.644 1552.35 489.601C1541.13 487.771 1529.96 486.002 1518.74 492.567C1507.55 493.805 1496.32 497.615 1485.08 492.718C1474.46 491.686 1462.89 487.803 1452.7 487.896C1442.49 481.573 1430.98 489.439 1419.93 486.413C1401.82 486.273 1383.7 489.718 1365.61 486.287C1347.5 485.081 1329.4 482.321 1311.27 486.009C1303.48 483.465 1295.19 482.101 1288.48 488.776C1279.62 493.409 1269.78 491.603 1259.16 494.061C1249.92 489.29 1240.57 491.632 1231.3 493.914C1220.78 485.051 1212.71 494.456 1204.12 499.637C1199.25 504.812 1195.92 491.818 1189.8 503.44C1184.82 505.184 1179.77 503.696 1174.79 503.308C1161.54 505.425 1148.3 501.676 1135.05 503.161C1123.81 499.235 1115.07 499.33 1104.03 506.587C1093.28 511.413 1082.05 507.507 1071.74 511.176C1066.9 509.486 1062.5 514.064 1057.3 513.905C1046.83 502.13 1040.36 515.576 1030.49 520.73C1019.7 526.213 1013.82 515.186 1003.58 519.36C997.996 524.031 991.475 519.767 985.796 519.064C980.263 513.316 973.193 516.399 967.708 519.228C961.404 519.735 952.324 528.756 947.243 526.106C941.055 530.847 939.583 527.986 931.456 529.87C926.631 525.342 922.76 533.514 918.085 528.431C910.213 524.127 901.192 521.182 893.009 524.119C878.665 532.863 862.917 519.755 848.449 524.01C848.468 519.276 813.752 521.897 813.747 523.878C800.561 527.66 787.381 526.49 774.223 523.727C762.916 515.996 755.036 518.586 744.024 520.827C735.797 521.496 727.729 520.149 719.989 516.731C714.821 518.97 710.038 510.361 704.712 511.637C694.974 504.405 683.466 518.071 674.067 514.326C663.522 517.007 652.986 518.688 642.449 513.681C631.91 509.495 621.306 507.917 610.62 510.72C602.071 509.187 597.335 510.985 589.4 513.808C579.607 516.344 569.638 511.634 559.592 517.944C550.617 515.541 544.21 509.861 534.835 520.05C530.412 511.193 527.586 522.167 524.041 521.713C518.041 522.665 514.68 524.818 506.836 528.288C498.288 528.906 489.914 525.093 481.516 526.637C473.151 522.278 464.776 523.238 456.258 523.886C441.844 516.902 427.61 516.099 412.992 525.107C406.057 522.681 399.115 519.538 392.131 525.013C384.548 515.523 375.731 518.281 369.341 528.657C366.604 531.657 362.742 535.887 360.354 531.941C358.229 530.354 356.815 536.298 354.056 535.221C345.985 535.383 332.757 538.69 323.769 536.993C321.563 532.391 317.532 539.976 315.566 535.589C313.576 527.71 312.484 533.121 310.63 533.129C308.505 529.947 306.191 531.591 304.006 531.423C301.628 524.875 300.031 538.078 297.231 528.802C294.349 532.414 290.593 527.69 287.63 528.749C279.846 524.772 272.042 526.801 264.231 528.67C257.257 524.497 253.404 530.897 247.314 526.664C243.297 519.799 238.176 525.636 233.749 525.099C222.91 529.163 211.52 514.474 200.728 522.806C196.98 514.488 190.496 517.793 186.962 519.49C183.812 523.752 183.664 517.016 181.925 515.475C179.456 511.354 175.581 509.696 171.818 507.66C166.009 504.127 150.989 509.277 144.123 506.252C137.383 506.444 130.654 504.467 123.899 506.186C121.822 509.771 118.484 507.37 116.645 506.077C115.523 508.175 115.859 509.887 115.033 504.8C108.835 501.701 104.576 498.95 97.7031 501.33C92.0545 496.224 79.6862 504.15 75.4727 497.186C71.505 493.776 73.3639 499.401 66.5196 492.284C61.9414 490.614 56.9779 487.981 52.3259 492.192C48.3929 494.096 44.4547 496.735 40.5459 492.142C40.5672 487.719 40.5613 489.256 40.6138 477.582C40.6341 472.943 40.7231 456.914 40.8079 438.545C40.8879 422.383 40.9876 402.496 41.088 382.034C41.1952 360.365 41.304 338.338 41.4261 315.039C41.5374 291.738 41.6612 267.854 41.7842 244.545C41.8955 221.245 42.0167 198.52 42.1223 177.549C42.2218 156.984 42.3337 136.06 42.4024 121.039C42.4756 106.423 42.5573 90.0163 42.5956 82.0107C42.6091 78.9177 42.6775 66.1695 42.6644 67.442C46.1264 65.8151 49.9108 71.7107 51.9283 66.9326C56.7095 66.137 61.4943 65.3038 66.2628 67.0258C68.1167 67.8201 73.7028 64.2716 75.6399 67.2604C78.1339 69.299 77.3689 73.5639 79.9021 70.9927C81.9657 70.9532 86.9939 74.6088 89.413 71.5294C99.2339 73.4751 109.245 76.3779 119.555 72.7465C127.456 74.3648 133.967 61.3655 141.545 69.9879C149.864 69.0518 158.407 70.641 166.747 70.1498C173.017 67.396 179.261 70.0076 185.519 70.2147C195.479 71.7178 199.554 73.0972 207.813 66.8838C213.775 64.6171 220.644 65.8023 227.148 59.6791C236.8 55.7926 248.385 56.8566 258.648 58.1457C273.989 57.9154 287.114 66.703 302.851 63.8036C310.478 60.4592 313.506 69.6111 319.14 68.2922C324.17 73.9759 328.986 68.2777 335.903 74.9657C341.329 68.1042 356.259 69.344 369.973 74.4576C383.702 74.988 396.252 75.4804 396.851 77.6084C407.023 82.8055 417.648 83.0266 427.933 82.2704C438.185 87.313 448.124 83.8245 456.877 90.136C464.005 102.801 470.011 95.1888 478.511 93.2659C486.839 94.717 495.572 89.1039 504.118 93.0421C512.683 94.1708 521.096 96.109 528.882 95.408C537.825 96.1017 545.007 95.0268 553.798 93.6815C561.695 83.5368 570.733 89.1331 579.025 92.2228C583.931 94.0868 589.977 98.5518 594.325 94.5742C597.965 95.7335 599.453 100.133 603.794 96.57C611.651 96.374 619.964 99.3521 627.81 96.665C635.378 88.1473 642.054 95.0914 649.382 93.6309C656.861 95.9167 663.889 100.085 671.371 90.0799C684.199 90.1679 697.589 88.3532 710.268 88.4115C722.43 88.9985 734.419 78.8006 746.62 83.9747C755.018 83.4499 762.989 82.8566 771.418 83.4849C781.319 81.418 790.968 83.5777 800.857 79.4725C808.864 72.1468 816.192 80.4398 824.169 75.3569C833.792 67.5725 844.102 78.3544 853.28 78.2917C860.742 82.2364 866.466 81.1033 874.491 79.7121C885.326 89.8811 897.172 82.7762 907.91 80.1097C913.509 77.1092 918.645 82.3667 924.239 82.7052C928.377 82.1743 932.904 84.9447 937.098 82.6916C946.606 79.9738 956.096 91.2906 965.654 82.8131C975.187 78.918 984.65 83.479 994.019 84.4865C995.396 83.1146 992.993 84.5539 994.246 90.9644C1001.11 91.9607 1013.7 93.8708 1021.07 91.2439C1030.71 83.7812 1036.8 92.7489 1044.83 95.414C1056.65 93.9861 1072.05 102.975 1085.67 103.904C1093.79 107.642 1104.39 101.361 1112.74 103.937C1123.04 98.7292 1133.16 101.923 1142.98 105.208C1147.02 107.934 1150.51 102.951 1154.51 107.919C1161.88 101.387 1169.1 112.238 1176.5 111.047C1185.1 118.045 1193.54 108.778 1202.26 113.984C1209.69 110.899 1211.48 122.517 1215.65 121.385C1218.37 126.063 1220.38 122.208 1225.01 126.458C1228.89 118.853 1234.48 133.18 1238.53 126.379C1250.51 124.122 1262.02 122.577 1273.85 125.14C1283.96 120.212 1292.86 127.59 1302.66 129.063C1306.75 121.539 1309.92 125.07 1313.75 130.789C1320.38 131.759 1328.27 131.613 1334.47 133.06C1339.53 138.407 1342.69 133.212 1348.48 135.243C1358.51 140.477 1366.46 128.855 1376 141.147C1386.8 148.579 1400.77 146.843 1412.07 142.02C1423.84 142.682 1435.23 144.09 1446.59 141.073C1457.92 142.665 1469.15 152.693 1480.7 144.143C1489.32 137.644 1498.98 145.983 1507.91 145.176C1521.04 145.833 1532.81 134.28 1546.02 141.281C1556.04 139.015 1566.05 139.814 1576.05 141.424C1586.05 143.345 1596.07 142.664 1606.07 141.51C1615.15 139.403 1624.2 142.302 1633.27 141.638C1642.36 138.927 1651.41 141.968 1660.47 141.68C1665.51 140.648 1668.37 141.364 1672.73 143.009C1678.72 146.376 1686.53 140.036 1692.63 143.203C1704.7 144.038 1721.11 138.688 1731.99 145.039C1737.17 148.084 1739.89 148.544 1745.78 149.923C1752.83 152.47 1760.45 155.059 1767.43 153.12C1778.54 155.253 1786.82 151.116 1797.28 150.392C1805.56 150.802 1814.41 147.716 1823.16 150.075C1831.93 148.53 1840.62 147.262 1848.59 152.366C1858.93 152.793 1869.68 151.769 1880.22 157.36C1883.42 157.582 1887.03 153.438 1890.02 157.729C1891.56 158.029 1892.01 158.561 1893.37 159.047C1896.95 157.683 1899 164.943 1903.27 160.526C1912.42 161.613 1922.39 158.862 1931.52 160.635C1935.85 160.779 1939.8 161.715 1944.11 159.187C1949.29 163.58 1954.87 162.569 1960.1 159.287C1966.36 164.984 1972.31 164.386 1978.6 160.559C1985.55 169.39 1991.7 164.203 1998.48 163.278C2007.92 161.122 2017.91 161.08 2027.24 159.868C2039.44 161.873 2052.3 158.077 2064.69 158.294C2077.66 161.863 2091.18 162.246 2104.02 158.165C2118.65 156.686 2131.16 158.628 2146.25 155.785C2153.93 149.295 2160.31 152.623 2167.82 158.817C2173.32 159.837 2179.14 155.155 2184.66 158.78C2197.51 161.312 2211.03 154.517 2223.26 160.269C2235.31 164.281 2247.31 164.809 2260.09 164.563C2260.16 160.022 2260.17 168.691 2260.25 164.566C2260.29 156.051 2260.22 169.412 2260.16 181.821C2260.13 188.29 2260.02 210.024 2259.94 226.318C2259.84 246.648 2259.74 265.375 2259.63 287.166C2259.52 308.957 2259.42 331.664 2259.31 353.464C2259.19 374.972 2259.09 397.103 2259 414.312C2258.92 432.002 2258.82 450.738 2258.78 458.809C2258.71 471.614 2258.71 471.048 2258.69 476.065" fill="white"/>
<path d="M2258.85 440.299C2253.56 441.095 2248.81 442.45 2243.31 441.882C2231.31 445.825 2217.43 443.029 2204.86 445.856C2195.18 445.241 2188.81 452.845 2180.87 452.582C2173.43 452.46 2170.55 448.374 2161.03 457.723C2149.26 457.296 2135.1 457.98 2123.54 457.785C2117.54 460.842 2113.93 462.336 2107.62 460.341C2097.24 456.384 2087.16 462.805 2077.01 458.817C2068 455.307 2060.94 457.542 2051.31 454.497C2040.53 459.594 2028.67 453.36 2018.03 454.713C2009.04 453.148 1999.92 455.554 1990.77 455.78C1981.59 461.577 1972.47 451.164 1963.28 455.575C1949.43 457.46 1931.2 452.595 1918.91 458.083C1915.16 457.746 1912.1 459.694 1907.81 462.252C1904.69 461.818 1902.05 466.778 1898.96 463.857C1895.82 466.309 1892.03 472.062 1889.1 466.53C1886.07 461.51 1883.35 466.699 1880.39 470.145C1874.59 470.066 1864.64 475.864 1858.61 470.203C1852.2 466.39 1844.43 464.603 1838.28 471.836C1830.04 479.617 1822.26 476.592 1814.25 479.466C1807.02 479.528 1799 484.626 1790.91 481.192C1782.79 479.662 1774.56 478.794 1766.84 481.895C1753.44 484.275 1739.71 482.443 1725.36 484.924C1719.93 481.994 1715.16 479.772 1709.67 483.393C1706 485.477 1702.26 484.895 1698.61 483.386C1690.95 487.936 1683.35 480.915 1675.71 483.296C1668.58 479.064 1659.43 486.571 1652.62 483.004C1647.46 483.989 1648.62 474.093 1645.37 479.339C1643.16 475.463 1640.14 477.574 1637.46 477.824C1630.67 470.097 1623.6 481.217 1617.8 474.883C1610.94 479.453 1605.96 473.263 1598.38 471.734C1590.47 464.126 1584.57 467.661 1576.35 467.736C1565.43 467.437 1554.31 471.132 1543.38 467.711C1543.39 466.344 1516.94 460.159 1516.91 467.608C1511.21 469.497 1503.55 471.104 1498.14 467.26C1490.85 467.912 1485.21 468.278 1477.56 460.801C1471.83 460.905 1466.52 460.946 1460.82 458.072C1452.86 461.779 1442.82 454.507 1434.75 457.697C1421.07 461.367 1404.4 455.795 1392 459.567C1385.43 458.706 1379.55 460.742 1371.73 464.403C1366.94 470.876 1365.41 470.04 1360.91 462.14C1354.61 464.9 1347.17 453.232 1340.6 461.464C1327.47 461.326 1314.33 459.206 1301.2 461.209C1292.99 457.776 1288.75 459.243 1281.89 464.35C1276.73 470.25 1275.58 473.572 1270.15 466.671C1259.07 465.266 1249.57 471.72 1238.6 469.295C1229.03 478.837 1219.49 478.062 1210 469.189C1196.5 470.571 1185.5 457.749 1173.21 471.632C1164.41 471.043 1159.8 476.209 1152.01 482.399C1139.67 490.544 1122.22 487.811 1107.52 485.163C1101.72 483.103 1093.96 488.248 1089.04 488.28C1085.3 495.253 1086.56 491.005 1081.3 490.701C1076.79 484.517 1072.44 493.522 1068.02 492.099C1064.24 493.439 1060.83 499.729 1056.93 494.825C1050.9 497.36 1044.44 496.101 1038.95 493.581C1035.37 496.803 1033.11 491.112 1029.85 491.848C1029.63 489.286 1028.75 492.401 1027.25 490.434C1027.27 486.54 1024.83 488.806 1024.83 490.127C1014.58 491.357 996.059 483.472 985.51 490.284C978.497 499.577 970.103 495.622 963.77 494.617C957.296 501.789 956.186 492.635 952.054 503.325C946.641 502.443 940.821 505.72 933.411 506.571C926.966 505.831 917.116 499.535 909.76 505.04C903.941 506.6 899.739 510.749 893.561 506.416C884.129 503.357 874.625 505.122 865.167 506.306C855.846 509.113 848.901 496.018 839.388 503.442C833.139 501.217 828.824 499.858 823.496 502.067C817.08 504.99 811.344 492.746 804.408 499.187C800.235 494.98 798.79 498.3 795.154 498.575C793.514 502.342 791.399 498.265 788.756 496.31C787.556 502.525 786.406 496.508 785.245 496.415C769.815 496.092 754.122 489.448 739.568 490.405C732.474 474.894 724.278 489.998 716.05 486.583C707.826 483.469 699.449 485.354 691.789 485.083C682.465 480.881 673.065 490.766 663.751 484.98C658.181 490.294 650.774 488.957 645.35 485.018C641.727 492.868 640.993 489.089 637.749 482.412C634.915 477.123 628.386 481.923 625.23 481.026C621.355 489.924 618.017 483.664 614.667 480.149C613.54 488.434 611.923 484.365 609.784 476.787C608.152 474.688 606.513 473.805 604.859 476.138C598.689 475.466 593.525 472.328 587.279 473.697C577.641 472.227 568.255 471.058 558.739 475.228C551.803 476.453 544.234 477.716 537.836 478.98C532.911 478.105 528.455 481.858 523.099 483.216C516.629 479.673 510.253 483.881 503.635 486.091C498.976 479.368 494.103 492.014 489.545 487.864C485.177 491.831 481.541 486.078 476.937 490.924C468.923 495.938 460.461 492.365 451.941 491.324C443.4 494.253 434.875 488.958 426.741 491.143C412.725 497.365 399.708 493.698 387.149 501.581C382.973 512.382 378.864 503.529 374.681 505.547C372.443 508.894 370.369 511.763 368.482 508.363C365.343 503.995 360.971 509.819 357.78 508.494C350.027 508.509 342.036 508.969 334.319 508.609C326.166 514.283 324.21 510.133 317.942 512.528C312.389 514.145 309.819 514.941 303.57 516.573C299.588 512.182 297.177 515.743 293.523 515.404C290.457 521.172 287.436 506.153 284.471 514.834C284.586 513.06 281.135 516.621 278.502 511.384C274.976 513.45 275.502 516.233 274.402 505.607C262.461 498.169 249.073 502.125 236.702 503.947C230.807 504.483 227.37 499.037 223.812 498.384C220.273 486.969 215.648 492.596 211.507 490.438C207.874 495.553 205.358 482.391 200.625 482.803C192.338 477.62 181.405 478.575 172.037 480.397C166.965 480.493 161.689 479.205 156.903 478.803C152.493 478.776 147.881 470.991 143.279 476.724C136.547 479.784 132.691 473.496 127.05 472.06C120.675 471.043 113.082 458.938 105.555 464.865C100.114 465.076 98.8867 460.45 94.2067 467.45C87.0929 469.284 77.3589 469.948 69.9479 467.63C61.0598 471.015 52.1276 464.191 43.2485 467.595C42.2197 465.653 41.5156 466.668 40.6589 467.352C40.6655 465.239 40.709 456.838 40.7558 447.38C40.7786 442.26 40.9373 411.765 41.012 395.886C41.1154 376.528 41.2405 350.701 41.362 325.477C41.562 285.128 41.781 242.083 41.9658 204.96C42.0586 186.393 42.136 170.373 42.2153 154.786C42.2746 142.018 42.3245 133.664 42.3872 119.954C42.4446 109.591 42.4486 108.186 42.4518 106.903C44.3493 106.107 45.9885 109.262 47.0268 106.791C56.8244 102.17 62.8438 101.463 70.7137 102.042C75.0607 104.771 79.4497 99.4568 84.4973 98.3691C92.1733 98.2544 99.3041 92.9499 106.938 97.4731C117.047 98.336 127.429 92.2478 136.527 91.3209C145.053 81.0519 153.274 85.5609 162.996 83.8868C173.755 83.278 184.259 83.0659 194.698 84.2168C205.122 86.8853 215.464 93.0286 226.009 86.5938C239.475 88.3975 252.285 85.0506 266.317 88.4233C273.219 85.9605 280.845 88.6436 287.625 88.6055C297.297 87.5598 306.542 95.5386 316.227 93.7958C323.112 95.5009 328.83 97.7161 335.838 95.5155C344.867 97.0172 357.029 105.433 362.031 101.645C364.831 103.432 363.369 108.184 368.641 113.263C370.428 111.92 373.572 114.308 375.543 113.535C381.714 111.802 387.852 115.085 394.021 113.607C401.073 113.212 410.998 112.137 417.246 114.485C423.504 116.729 427.117 119.311 434.151 121.716C442.236 119.253 452.744 125.918 461.317 123.453C464.794 124.167 466.778 123.829 469.607 122.694C471.592 129.95 472.844 117.863 475.337 120.713C480.067 120.904 485.916 116.082 490.842 119.56C503.884 117.966 516.55 123.051 528.826 119.26C541.095 116.695 552.887 120.358 564.189 112.252C569.347 108.531 574.047 107.899 580.387 105.999C588.056 102.318 599.28 101.158 607.122 106.112C612.366 106.944 617.045 99.7263 622.406 107.613C629.137 105.364 635.396 107.713 641.953 109.432C653.169 115.506 664.78 106.658 676.311 110.558C679.506 117.401 683.744 117.755 686.89 110.36C691.406 106.659 692.176 109.837 697.448 107.879C705.454 111.684 714.671 97.8141 722.126 104.56C730.717 107.237 739.287 107.517 748.031 101.669C756.75 100.281 765.661 93.596 774.842 101.334C774.837 101.608 799.998 101.182 825.139 101.528C850.328 94.8974 875.476 95.0554 875.436 101.721C883.612 104.199 896.295 100.475 903.996 101.796C909.244 99.9776 909.71 109.623 914.652 107.604C918.115 102.336 925.493 111.123 929.306 107.418C934.612 109.292 939.375 106.873 944.424 108.275C948.644 101.996 951.911 112.061 956.356 110.591C963.802 117.081 969.159 113.884 976.18 115.184C984.631 109.796 995.214 108.976 1004.05 115.878C1013.63 116.816 1022.49 116.853 1030.95 120.417C1039.54 131.688 1048.42 125.34 1057.47 124.353C1066.51 125.563 1075.73 129.946 1085.18 124.47C1093.89 121.478 1102.4 122.206 1110.81 124.559C1119.25 123.915 1127.61 122.161 1135.96 126.547C1147.34 125.238 1158.79 125.264 1169.87 129.537C1177.44 127.679 1185.68 130.067 1192.84 133.131C1201.79 131.279 1209.46 137.427 1218.12 134.912C1228.1 140.689 1238.8 139.03 1249.21 139.839C1260.54 132.856 1270.1 149.178 1281.92 143.043C1292.62 158.985 1312.62 144.46 1319.61 147.985C1325.63 161.692 1332.52 147.56 1342.49 154.996C1352.12 149.684 1363.66 152.934 1372.66 155.904C1382.13 159.598 1388.82 169.816 1398.78 163.028C1405.66 160.828 1413.99 156.667 1420.51 165.137C1424.95 162.458 1428.15 164.218 1432.9 167.957C1442.17 169.175 1451.85 168.922 1461.6 170.098C1471.37 168.767 1481.21 171.044 1490.84 169.958C1493.28 167.691 1496.49 169.206 1498.81 169.685C1501.47 167.453 1502.19 172.429 1504.36 167.464C1508.65 166.199 1514.87 164.545 1519.46 166C1528.35 163.605 1537.84 166.084 1546.79 165.985C1554.77 162.798 1562.82 164.72 1570.75 166.142C1577.11 166.913 1581.08 162.776 1587.22 163.287C1591.98 159.367 1595.11 164.734 1599.89 161.731C1607.6 163.647 1616.12 157.245 1624.26 157.956C1631.75 158.375 1634.96 160.116 1641.59 160.746C1646.83 163.323 1651.48 163.471 1657.08 162.206C1662.32 162.142 1663.9 163.727 1668.41 165.223C1671.86 164.114 1677.85 161.614 1681.56 165.127C1690.31 163.929 1699.04 170.145 1707.79 165.222C1717.41 164.521 1724.83 161.784 1734.27 161.118C1737.09 158.567 1743.02 159.751 1745.71 161.389C1747.26 160.69 1749.39 163.249 1750.6 164.025C1754.71 165.397 1756.98 169.07 1761.86 166.867C1770.03 166.213 1779.28 169.372 1787.95 167.97C1797.14 164.805 1805.51 169.74 1814.92 167.005C1827.75 172.197 1838.51 163.608 1850.87 169.718C1858.58 172.671 1867.65 170.138 1874.99 173.018C1877.16 172.864 1878.41 170.285 1880.79 175.248C1883.87 176.122 1887.71 173.466 1890.88 175.516C1900.97 173.944 1910.88 178.396 1920.83 176.7C1930.57 179.527 1940.04 174.674 1950.1 175.742C1959.65 173.027 1969.2 172.84 1978.73 175.746C1988.27 178.218 1997.85 172.214 2007.35 175.9C2017.99 177.509 2027.13 181.782 2037.46 180.068C2045.63 181.592 2053.89 183.028 2062.1 183.103C2072.52 183.027 2083.36 182.518 2093.83 183.407C2101.59 184.129 2104.22 185.932 2110.35 188.441C2116.13 187.821 2122.63 190.677 2129.41 191.554C2137.59 189.958 2144.77 188.165 2152.75 190.214C2162.28 190.752 2172.18 193.26 2181.66 190.248C2193.13 187.04 2203.19 187.899 2214.88 187.735C2222.29 189.931 2255.35 186.841 2254.63 193.156C2256.27 195.378 2258.16 190.779 2260.06 193.709C2260.05 195.406 2260.05 195.312 2260 205.694C2259.96 212.341 2259.9 224.892 2259.84 236.971C2259.78 248.71 2259.7 264.74 2259.63 280.525C2259.51 304.203 2259.38 329.851 2259.26 353.527C2259.14 377.346 2259.02 401.24 2258.94 414.695C2258.87 428.726 2258.82 440.786 2258.82 440.343" fill="#FC3390"/>
</svg>
