<svg width="31" height="31" viewBox="0 0 31 31" fill="none" xmlns="http://www.w3.org/2000/svg">
<path d="M28.4487 27.4654L18.4337 12.916L17.3014 11.2704L10.1377 0.862624L9.54421 0H0.741211L2.88795 3.11978L12.4129 16.9594L13.5452 18.6029L21.1984 29.7231L21.7919 30.5846H30.5949L28.4487 27.4654ZM22.8387 28.594L14.8877 17.0412L13.7554 15.3966L4.52879 1.9912H8.49738L15.9589 12.8321L17.0912 14.4767L26.8073 28.5934L22.8387 28.594Z" fill="white"/>
<path d="M13.7555 15.3972L14.8878 17.0418L13.5453 18.604L3.24635 30.5852H0.706787L12.413 16.96L13.7555 15.3972Z" fill="white"/>
<path d="M29.5353 0.000732422L18.4338 12.9162L17.0913 14.4779L15.959 12.8334L17.3015 11.2711L24.822 2.518L26.9958 0.000732422H29.5353Z" fill="white"/>
</svg>
